<svg width="160" height="178" viewBox="0 0 160 178" fill="none" xmlns="http://www.w3.org/2000/svg">
<g filter="url(#filter0_d_25_1180)">
<path d="M75.9733 9.07511C78.465 7.64163 81.5349 7.64163 84.0266 9.07511L143.973 43.5627C146.465 44.9962 148 47.6454 148 50.5124V119.488C148 122.355 146.465 125.004 143.973 126.437L84.0266 160.925C81.5349 162.358 78.465 162.358 75.9733 160.925L16.0266 126.437C13.535 125.004 12 122.355 12 119.488V50.5124C12 47.6454 13.5349 44.9962 16.0266 43.5627L75.9733 9.07511Z" fill="#161719"/>
</g>
<path d="M80.4291 103.433L78.6241 102.379V83.7881L87.7535 78.4402L80.4291 74.1455L71.3613 79.4618V106.706L80.4291 111.984L103.795 98.3497L96.6919 93.9225L80.4291 103.433Z" fill="white"/>
<path d="M80.4573 39.9062L40.7344 62.4852V107.701L48.2915 111.98V66.8604L80.4573 48.5674L94.9428 56.8325L96.5915 49.072L80.4573 39.9062Z" fill="white"/>
<path d="M112.394 67.4323V103.387L79.9611 121.447L62.7807 111.868V76.0458L79.9611 66.4738L97.1415 76.0143L104.768 71.7895V71.7201L79.9611 57.9233L55.1543 71.7201V116.194L79.9611 129.997L120.021 107.713V63.1381L112.394 67.4323Z" fill="white"/>
<defs>
<filter id="filter0_d_25_1180" x="0" y="0" width="160" height="178" filterUnits="userSpaceOnUse" color-interpolation-filters="sRGB">
<feFlood flood-opacity="0" result="BackgroundImageFix"/>
<feColorMatrix in="SourceAlpha" type="matrix" values="0 0 0 0 0 0 0 0 0 0 0 0 0 0 0 0 0 0 127 0" result="hardAlpha"/>
<feOffset dy="4"/>
<feGaussianBlur stdDeviation="6"/>
<feComposite in2="hardAlpha" operator="out"/>
<feColorMatrix type="matrix" values="0 0 0 0 0 0 0 0 0 0 0 0 0 0 0 0 0 0 0.35 0"/>
<feBlend mode="normal" in2="BackgroundImageFix" result="effect1_dropShadow_25_1180"/>
<feBlend mode="normal" in="SourceGraphic" in2="effect1_dropShadow_25_1180" result="shape"/>
</filter>
</defs>
</svg>
