<svg width="56" height="56" viewBox="0 0 56 56" fill="none" xmlns="http://www.w3.org/2000/svg">
<g id="ic_koalaknights_gy_56px" opacity="0.5">
<path id="Vector" d="M28.5 4C28.018 4 27.5361 4.01579 27.0621 4.04736V6.42321C27.5361 6.39163 28.018 6.37585 28.5 6.37585C40.6777 6.37585 50.5902 16.116 50.5902 28.0821C50.5902 33.3153 48.6944 38.1222 45.5456 41.8794V41.8636V38.7695H42.3967V35.6596H39.2398V32.5654H42.3887V29.4713H45.5375V26.3772V23.2673H42.3887H39.2398V26.3614H36.091V23.2673H32.9421V20.1731H29.7933V17.079H26.6444V13.9849H23.4956V10.875H20.3467V7.78083H17.1979H14.049H10.9002H7.75131V10.875V13.9691V17.0632V20.1573H10.9002V23.2515H14.049V26.3456H17.1979V29.4397H20.3467V32.5339H23.4956V35.628H26.6444V38.7221H23.4956V41.8162V44.9104H26.6444H29.7933V41.8162H32.9421V38.7221H36.091V41.8162H39.2398V44.9104H42.3646C38.5731 47.9256 33.7454 49.741 28.492 49.741C16.3143 49.741 6.4018 40.0008 6.4018 28.0347C6.4018 27.5612 6.4259 27.0876 6.45 26.6219H4.0482C4.0241 27.0876 4 27.5612 4 28.0347C4 41.3111 14.9889 52.109 28.5 52.109C42.0111 52.109 53 41.3111 53 28.0347C53 14.7584 42.0111 4 28.5 4ZM32.9421 32.5654H29.7933V29.4713H26.6444V26.3772H23.4956V23.2673H20.3467V20.1731H17.1979V17.079H20.3467V20.1731H23.4956V23.2673H26.6444V26.3614H29.7933V29.4555H32.9421V32.5654Z" fill="white"/>
</g>
</svg>
