<svg width="37" height="37" viewBox="0 0 37 37" fill="none" xmlns="http://www.w3.org/2000/svg">
<g id="ic_logo_firmachain_hover_36px_bk">
<g id="Group 1260">
<path id="Vector" d="M18.4981 24.0069L17.9335 23.6774V17.8618L20.7893 16.1889L18.4981 14.8455L15.6616 16.5085L15.6616 25.0307L18.4981 26.6819L25.8071 22.4168L23.5853 21.032L18.4981 24.0069Z" fill="white"/>
<path id="Vector_2" d="M18.5039 4.13739L6.07813 11.2003L6.07813 25.3442L8.44207 26.6828L8.44207 12.569L18.5039 6.84668L23.0351 9.4321L23.5509 7.00452L18.5039 4.13739Z" fill="white"/>
<path id="Vector_3" d="M28.4951 12.7479V23.995L18.3497 29.6442L12.9755 26.648L12.9755 15.4423L18.3497 12.4481L23.7239 15.4325L26.1095 14.1109V14.0892L18.3497 9.77344L10.5898 14.0892L10.5898 28.0011L18.3497 32.3189L30.8808 25.3481V11.4047L28.4951 12.7479Z" fill="white"/>
</g>
</g>
</svg>
