<svg width="155" height="40" viewBox="0 0 155 40" fill="none" xmlns="http://www.w3.org/2000/svg">
<g id="ic_logo_firmachain_wh_m" clip-path="url(#clip0_293_170)">
<g id="Clip path group">
<mask id="mask0_293_170" style="mask-type:luminance" maskUnits="userSpaceOnUse" x="0" y="0" width="155" height="40">
<g id="w7jumzamga">
<path id="&#236;&#130;&#172;&#234;&#176;&#129;&#237;&#152;&#149; 9" d="M0 0H155V40H0V0Z" fill="white"/>
</g>
</mask>
<g mask="url(#mask0_293_170)">
<g id="&#234;&#183;&#184;&#235;&#163;&#185; 6">
<g id="&#234;&#183;&#184;&#235;&#163;&#185; 30943">
<path id="&#237;&#140;&#168;&#236;&#138;&#164; 1" d="M18.8652 25.4051L18.3156 25.0931V19.6091L21.0915 18.0311L18.8652 16.7651L16.1084 18.3331V26.3691L18.8652 27.9271L25.968 23.9041L23.8101 22.5991L18.8652 25.4051Z" fill="white"/>
<path id="&#237;&#140;&#168;&#236;&#138;&#164; 2" d="M18.8663 6.66309L7.27148 13.2381V26.4081L9.47873 27.6551V14.5141L18.8663 9.18608L23.0936 11.5921L23.5747 9.33208L18.8663 6.66309Z" fill="white"/>
<path id="&#237;&#140;&#168;&#236;&#138;&#164; 3" d="M28.2544 14.5242V25.1322L18.8669 30.4602L13.8918 27.6352V17.0662L18.8659 14.2412L23.839 17.0562L26.0462 15.8092V15.7932L18.8659 11.7212L11.6855 15.7932V28.9112L18.8659 32.9832L30.4607 26.4082V13.2572L28.2544 14.5242Z" fill="white"/>
</g>
<path id="&#237;&#140;&#168;&#236;&#138;&#164; 4" d="M38.8232 13.7842H48.0639V15.9082H41.3445V19.5032H47.152V21.6272H41.3445V26.7272H38.8283L38.8232 13.7842Z" fill="white"/>
<path id="&#236;&#130;&#172;&#234;&#176;&#129;&#237;&#152;&#149; 7" d="M49.6426 13.7842H52.183V26.7302H49.6426V13.7842Z" fill="white"/>
<path id="&#237;&#140;&#168;&#236;&#138;&#164; 5" d="M64.9364 22.4342V26.7342H62.405V23.0082L61.2868 21.7712H57.2256V26.7302H54.6953V13.7842H62.9254L64.8871 15.7842V19.6842L63.6219 20.9602L64.9364 22.4342ZM57.2256 19.6972H61.7186L62.3658 19.0542V16.5402L61.7186 15.8872H57.2256V19.6972Z" fill="white"/>
<path id="&#237;&#140;&#168;&#236;&#138;&#164; 6" d="M67.2715 13.7842H69.6196L73.4946 22.1422L77.42 13.7842H79.7641V26.7302H77.3314V18.8492L74.3884 24.9182H72.7398L69.7968 18.8492V26.7302H67.2805L67.2715 13.7842Z" fill="white"/>
<path id="&#237;&#140;&#168;&#236;&#138;&#164; 7" d="M85.8419 13.7842H88.1467L92.9145 26.7302H90.3983L89.3384 23.8662H84.7085L83.6487 26.7302H81.0781L85.8419 13.7842ZM88.7255 21.7912L86.9893 16.9212L85.3114 21.7912H88.7255Z" fill="white"/>
<path id="&#237;&#140;&#168;&#236;&#138;&#164; 8" d="M94.1133 24.6072V15.9072L96.2521 13.7832H102.618L104.732 15.8682V17.8162H102.2V16.7942L101.327 15.9272H97.6028L96.6215 16.9012V23.7202L97.6028 24.6942H101.327L102.2 23.8272V22.6582H104.732V24.6062L102.618 26.7002H96.2521L94.1133 24.6072Z" fill="white"/>
<path id="&#237;&#140;&#168;&#236;&#138;&#164; 9" d="M106.493 13.7842H109.034V19.2002H114.547V13.7842H117.078V26.7302H114.547V21.3402H109.034V26.7302H106.493V13.7842Z" fill="white"/>
<path id="&#237;&#140;&#168;&#236;&#138;&#164; 10" d="M123.15 13.7842H125.455L130.223 26.7302H127.652L126.603 23.8662H122.021L120.962 26.7302H118.392L123.15 13.7842ZM126.035 21.7912L124.309 16.9212L122.631 21.7912H126.035Z" fill="white"/>
<path id="&#236;&#130;&#172;&#234;&#176;&#129;&#237;&#152;&#149; 8" d="M131.626 13.7842H134.156V26.7302H131.626V13.7842Z" fill="white"/>
<path id="&#237;&#140;&#168;&#236;&#138;&#164; 11" d="M136.668 13.7842H138.944L144.751 22.5512V13.7842H147.203V26.7302H144.926L139.119 17.9632V26.7302H136.673L136.668 13.7842Z" fill="white"/>
</g>
</g>
</g>
</g>
<defs>
<clipPath id="clip0_293_170">
<rect width="155" height="40" fill="white"/>
</clipPath>
</defs>
</svg>
