<svg width="37" height="37" viewBox="0 0 37 37" fill="none" xmlns="http://www.w3.org/2000/svg">
<path d="M18.4981 24.0067L17.9335 23.6772V17.8616L20.7893 16.1888L18.4981 14.8453L15.6616 16.5083L15.6616 25.0305L18.4981 26.6817L25.8071 22.4167L23.5853 21.0318L18.4981 24.0067Z" fill="white"/>
<path d="M18.5039 4.13721L6.07813 11.2001L6.07813 25.344L8.44207 26.6827L8.44207 12.5688L18.5039 6.8465L23.0351 9.43191L23.5509 7.00434L18.5039 4.13721Z" fill="white"/>
<path d="M28.4951 12.7478V23.9948L18.3497 29.644L12.9755 26.6478L12.9755 15.4422L18.3497 12.4479L23.7239 15.4323L26.1095 14.1107V14.089L18.3497 9.77325L10.5898 14.089L10.5898 28.0009L18.3497 32.3187L30.8808 25.348V11.4045L28.4951 12.7478Z" fill="white"/>
</svg>
