<svg width="154" height="40" viewBox="0 0 154 40" fill="none" xmlns="http://www.w3.org/2000/svg">
<g id="ic_logo_firmachain_wh" clip-path="url(#clip0_293_82)">
<g id="Clip path group">
<mask id="mask0_293_82" style="mask-type:luminance" maskUnits="userSpaceOnUse" x="0" y="0" width="154" height="40">
<g id="w7jumzamga">
<path id="&#236;&#130;&#172;&#234;&#176;&#129;&#237;&#152;&#149; 9" d="M0 0H154V40H0V0Z" fill="white"/>
</g>
</mask>
<g mask="url(#mask0_293_82)">
<g id="&#234;&#183;&#184;&#235;&#163;&#185; 6">
<g id="&#234;&#183;&#184;&#235;&#163;&#185; 30943">
<path id="&#237;&#140;&#168;&#236;&#138;&#164; 1" d="M18.7439 25.4051L18.1979 25.0931V19.6091L20.9559 18.0311L18.7439 16.7651L16.0049 18.3331V26.3691L18.7439 27.9271L25.8009 23.9041L23.6569 22.5991L18.7439 25.4051Z" fill="white"/>
<path id="&#237;&#140;&#168;&#236;&#138;&#164; 2" d="M18.7446 6.66309L7.22461 13.2381V26.4081L9.41761 27.6551V14.5141L18.7446 9.18608L22.9446 11.5921L23.4226 9.33208L18.7446 6.66309Z" fill="white"/>
<path id="&#237;&#140;&#168;&#236;&#138;&#164; 3" d="M28.0723 14.5242V25.1322L18.7453 30.4602L13.8024 27.6352V17.0662L18.7444 14.2412L23.6854 17.0562L25.8783 15.8092V15.7932L18.7444 11.7212L11.6104 15.7932V28.9112L18.7444 32.9832L30.2644 26.4082V13.2572L28.0723 14.5242Z" fill="white"/>
</g>
<path id="&#237;&#140;&#168;&#236;&#138;&#164; 4" d="M38.5723 13.7842H47.7533V15.9082H41.0773V19.5032H46.8473V21.6272H41.0773V26.7272H38.5773L38.5723 13.7842Z" fill="white"/>
<path id="&#236;&#130;&#172;&#234;&#176;&#129;&#237;&#152;&#149; 7" d="M49.3223 13.7842H51.8463V26.7302H49.3223V13.7842Z" fill="white"/>
<path id="&#237;&#140;&#168;&#236;&#138;&#164; 5" d="M64.5178 22.4342V26.7342H62.0028V23.0082L60.8918 21.7712H56.8568V26.7302H54.3428V13.7842H62.5198L64.4688 15.7842V19.6842L63.2118 20.9602L64.5178 22.4342ZM56.8568 19.6972H61.3208L61.9638 19.0542V16.5402L61.3208 15.8872H56.8568V19.6972Z" fill="white"/>
<path id="&#237;&#140;&#168;&#236;&#138;&#164; 6" d="M66.8379 13.7842H69.1709L73.0209 22.1422L76.9209 13.7842H79.2499V26.7302H76.8329V18.8492L73.9089 24.9182H72.2709L69.3469 18.8492V26.7302H66.8469L66.8379 13.7842Z" fill="white"/>
<path id="&#237;&#140;&#168;&#236;&#138;&#164; 7" d="M85.2877 13.7842H87.5777L92.3147 26.7302H89.8147L88.7617 23.8662H84.1617L83.1087 26.7302H80.5547L85.2877 13.7842ZM88.1527 21.7912L86.4277 16.9212L84.7607 21.7912H88.1527Z" fill="white"/>
<path id="&#237;&#140;&#168;&#236;&#138;&#164; 8" d="M93.5068 24.6072V15.9072L95.6318 13.7832H101.957L104.057 15.8682V17.8162H101.542V16.7942L100.674 15.9272H96.9738L95.9988 16.9012V23.7202L96.9738 24.6942H100.674L101.542 23.8272V22.6582H104.057V24.6062L101.957 26.7002H95.6318L93.5068 24.6072Z" fill="white"/>
<path id="&#237;&#140;&#168;&#236;&#138;&#164; 9" d="M105.807 13.7842H108.331V19.2002H113.809V13.7842H116.324V26.7302H113.809V21.3402H108.331V26.7302H105.807V13.7842Z" fill="white"/>
<path id="&#237;&#140;&#168;&#236;&#138;&#164; 10" d="M122.356 13.7842H124.646L129.383 26.7302H126.829L125.786 23.8662H121.234L120.182 26.7302H117.628L122.356 13.7842ZM125.222 21.7912L123.507 16.9212L121.84 21.7912H125.222Z" fill="white"/>
<path id="&#236;&#130;&#172;&#234;&#176;&#129;&#237;&#152;&#149; 8" d="M130.776 13.7842H133.29V26.7302H130.776V13.7842Z" fill="white"/>
<path id="&#237;&#140;&#168;&#236;&#138;&#164; 11" d="M135.786 13.7842H138.047L143.817 22.5512V13.7842H146.253V26.7302H143.991L138.221 17.9632V26.7302H135.791L135.786 13.7842Z" fill="white"/>
</g>
</g>
</g>
</g>
<defs>
<clipPath id="clip0_293_82">
<rect width="154" height="40" fill="white"/>
</clipPath>
</defs>
</svg>
