<svg width="192" height="78" viewBox="0 0 192 78" fill="none" xmlns="http://www.w3.org/2000/svg">
<g id="ic_title_koala-knights_m">
<g id="Group 1014">
<g id="Group">
<path id="Vector" d="M190.266 61.3466C189.369 60.1866 188.301 59.2859 187.06 58.6399C185.819 57.994 184.244 57.3435 182.337 56.6838C181.056 56.2244 180.087 55.8468 179.43 55.5466C178.774 55.2463 178.226 54.8869 177.787 54.473C177.343 54.059 177.125 53.5632 177.125 52.99C177.125 52.3031 177.325 51.7754 177.723 51.4023C178.122 51.0293 178.633 50.8428 179.263 50.8428C180.087 50.8428 180.766 51.0703 181.291 51.5297C181.817 51.9892 182.097 52.6761 182.124 53.5905H191.23C191.09 50.6154 189.971 48.2999 187.875 46.6577C185.778 45.0109 182.98 44.1875 179.476 44.1875C177.311 44.1875 175.373 44.5469 173.662 45.2611C171.95 45.9753 170.614 47.0307 169.645 48.4181C168.676 49.8056 168.192 51.4751 168.192 53.4221C168.192 55.3419 168.64 56.8931 169.537 58.0804C170.433 59.2677 171.488 60.1684 172.697 60.7871C173.906 61.4012 175.495 62.0381 177.465 62.6977C179.317 63.2982 180.657 63.8441 181.481 64.3308C182.306 64.8176 182.722 65.5045 182.722 66.3916C182.722 67.0785 182.473 67.6153 181.975 68.002C181.477 68.3886 180.843 68.5797 180.073 68.5797C179.217 68.5797 178.52 68.3386 177.977 67.8518C177.433 67.3651 177.121 66.5917 177.035 65.5318H168.101C168.273 68.6525 169.482 71.0498 171.733 72.7239C173.983 74.398 176.863 75.235 180.368 75.235C182.677 75.235 184.678 74.821 186.372 73.9885C188.065 73.1606 189.365 72.0279 190.261 70.5949C191.158 69.162 191.606 67.5471 191.606 65.7411C191.611 63.9715 191.162 62.5021 190.266 61.3466Z" fill="#FBFDFE"/>
</g>
<g id="Group_2">
<path id="Vector_2" d="M30.9353 44.6756H21.2771L11.9132 57.7315V44.6756H7.80174H3.53637H0L3.53637 48.233V71.3969L0 74.9498H3.53637H7.80174H11.9132V61.6801L21.3631 74.9498H31.4922L19.8643 59.3646L30.9353 44.6756Z" fill="#FBFDFE"/>
</g>
<g id="Group_3">
<path id="Vector_3" d="M75.6429 44.6756H72.5322H67.2661H64.7259L67.2661 47.2277V74.9498H70.9202H75.6429H78.7219L75.6429 71.8609V44.6756Z" fill="#FBFDFE"/>
</g>
<g id="Group_4">
<path id="Vector_4" d="M92.0247 63.7396H100.447C99.1925 66.4009 97.096 67.7337 94.1619 67.7337C91.6805 67.7337 89.7969 67.0559 88.4974 65.6957C87.2024 64.3356 86.5549 62.3522 86.5549 59.7501C86.5549 57.4301 87.1616 55.5831 88.3706 54.2093C89.5796 52.8355 91.2413 52.1486 93.3514 52.1486C94.4924 52.1486 95.4795 52.3624 96.3217 52.7945C97.164 53.2222 97.825 53.8408 98.3095 54.6415H107.329C106.732 51.4662 105.192 48.9597 102.715 47.1264C100.234 45.2931 97.1006 44.3787 93.3106 44.3787C90.2904 44.3787 87.628 45.0293 85.3187 46.3303C83.0094 47.6313 81.2209 49.451 79.953 51.7846C78.6852 54.1183 78.0513 56.775 78.0513 59.7501C78.0513 62.757 78.6852 65.4274 79.953 67.7565C81.2209 70.0902 83.014 71.9053 85.3368 73.2108C87.6597 74.5119 90.3312 75.1624 93.3514 75.1624C95.8282 75.1624 98.0379 74.712 99.9758 73.8113C101.914 72.9106 103.517 71.7597 104.785 70.354C106.052 68.9529 107.012 67.4471 107.669 65.8459V57.6894H92.0247V63.7396Z" fill="#FBFDFE"/>
</g>
<g id="Group_5">
<path id="Vector_5" d="M130.011 56.0574H119.796V44.6756H116.373H111.419H108.571L111.419 47.5415V55.9437H108.571L111.419 58.8051V72.657L109.137 74.9498H111.419H116.944H119.796V62.7992H130.011V74.9498H138.388V44.6756H130.011V56.0574Z" fill="#FBFDFE"/>
</g>
<g id="Group_6">
<path id="Vector_6" d="M141.518 45.5854V51.3764V53.4235L143.56 51.3764H149.469V74.9498H157.846V51.3764H163.841L165.883 53.4235V51.3764V45.5854V44.6756H141.518V45.5854Z" fill="#FBFDFE"/>
</g>
<g id="Group_7">
<path id="Vector_7" d="M54.0902 44.6756H51.5364L54.0902 47.2458V61.812L42.9332 44.6756H34.5564V74.9498H37.7894H42.9332H45.5911L42.9332 72.284V58.0317L54.0902 74.9498H62.467V44.6756H59.3381H54.0902Z" fill="#FBFDFE"/>
</g>
</g>
<g id="Group 1013">
<g id="Group_8">
<path id="Vector_8" d="M120.984 33.7416H138.725V27.3H129.366V3.46739H125.426H120.984H117.625L120.984 6.84736V33.7416Z" fill="#FBFDFE"/>
</g>
<g id="Group_9">
<path id="Vector_9" d="M160.55 3.46739H150.892L144.037 22.3597H140.69L143.14 24.8208L139.907 33.737H148.714L150.34 28.7967H161.026L162.651 33.737H171.499L160.55 3.46739ZM152.472 22.3597L155.678 12.5701L158.925 22.3597H152.472Z" fill="#FBFDFE"/>
</g>
<g id="Group_10">
<path id="Vector_10" d="M51.4453 3.46739H41.7871L32.4232 16.5187V3.46739H28.3118H24.0464H20.51L24.0464 7.02023V30.1842L20.51 33.7416H24.0464H28.3118H32.4232V20.4719L41.8731 33.7416H52.0022L40.3743 18.1518L51.4453 3.46739Z" fill="#FBFDFE"/>
</g>
<g id="Group_11">
<path id="Vector_11" d="M89.8952 24.8253L86.6622 33.7416H95.4691L97.0947 28.8012H107.781L109.406 33.7416H118.254L107.314 3.46739H97.6562L90.8008 22.3597H87.4546L89.8952 24.8253ZM102.433 12.5701L105.68 22.3597H99.2274L102.433 12.5701Z" fill="#FBFDFE"/>
</g>
<path id="Vector_12" d="M84.9094 16.5268C84.6694 14.3296 84.0264 12.3144 82.9669 10.4856C81.5994 8.12466 79.7384 6.28683 77.3884 4.9676C75.5908 3.9577 73.6437 3.33903 71.5518 3.10248L69.5685 0L67.5807 3.10702C65.525 3.34813 63.6006 3.9668 61.8075 4.96305C59.4439 6.28229 57.5693 8.12012 56.1883 10.4811C55.1197 12.3098 54.4677 14.3251 54.2277 16.5177L51.1396 18.5102L54.2322 20.5027C54.4767 22.6817 55.1288 24.6788 56.1883 26.4939C57.5693 28.8548 59.4439 30.7018 61.8075 32.0347C63.6006 33.0445 65.525 33.6678 67.5762 33.9134L69.564 37.0204L71.5473 33.918C73.6166 33.6769 75.5591 33.0536 77.3612 32.0347C79.7248 30.7018 81.5904 28.8548 82.9624 26.4939C84.0129 24.6788 84.6558 22.6817 84.9003 20.5027L87.9884 18.5102L84.9094 16.5268ZM74.6535 24.1192C73.4128 25.5204 71.7239 26.2255 69.5867 26.2255C67.4223 26.2255 65.7243 25.534 64.5017 24.142C63.2746 22.7545 62.6633 20.8712 62.6633 18.4966C62.6633 16.0901 63.2746 14.1977 64.5017 12.8057C65.7243 11.4182 67.4223 10.7222 69.5867 10.7222C71.7239 10.7222 73.4128 11.4182 74.6535 12.8057C75.8942 14.1931 76.5145 16.0901 76.5145 18.4966C76.5145 20.8439 75.8942 22.7181 74.6535 24.1192Z" fill="#F46E27"/>
</g>
</g>
</svg>
