<svg width="1772" height="851" viewBox="0 0 1772 851" fill="none" xmlns="http://www.w3.org/2000/svg">
<g opacity="0.5">
<mask id="mask0_2_377" style="mask-type:alpha" maskUnits="userSpaceOnUse" x="0" y="0" width="1772" height="851">
<path fill-rule="evenodd" clip-rule="evenodd" d="M722.773 497.713C406.797 429.611 145.229 196.138 1 1.60398L1.8033 1.00841C145.948 195.429 407.329 428.703 722.984 496.736C880.8 530.749 1052.19 523.461 1229.3 449.359C1406.41 375.255 1589.27 234.322 1770.01 1L1770.8 1.61238C1589.98 235.037 1406.99 376.096 1229.68 450.282C1052.37 524.469 880.773 531.767 722.773 497.713ZM722.804 513.892C406.87 465.98 145.305 301.715 1.05746 164.818L1.74584 164.092C145.873 300.875 407.257 465.027 722.954 512.903C1038.63 560.775 1408.63 492.396 1770.07 164.085L1770.74 164.825C1409.07 493.346 1038.76 561.807 722.804 513.892ZM1.12838 288.538C289.599 476.806 1047.34 740.373 1770.67 288.544L1770.14 287.696C1047.26 739.246 289.953 475.842 1.67492 287.701L1.12838 288.538ZM1770.58 397.7C1047.33 670.653 289.668 511.434 1.21824 397.698L1.58506 396.767C289.883 510.444 1047.27 669.604 1770.23 396.765L1770.58 397.7ZM1.32506 499.566C289.733 544.269 1047.31 606.852 1770.47 499.566L1770.33 498.577C1047.29 605.844 289.818 543.271 1.47824 498.577L1.32506 499.566ZM1770.41 573.392C1047.3 563.982 289.772 569.471 1.39485 573.392L1.40845 574.392C289.779 570.471 1047.3 564.982 1770.4 574.392L1770.41 573.392ZM1.33297 632.629C289.738 592.632 1047.31 536.637 1770.47 632.629L1770.34 633.62C1047.29 537.643 289.814 593.631 1.47034 633.62L1.33297 632.629ZM1770.57 735.53C1047.32 471.991 289.672 625.719 1.22375 735.533L1.57955 736.467C289.88 626.71 1047.27 473.037 1770.23 736.47L1770.57 735.53ZM1.12838 848.854C289.599 660.587 1047.34 397.019 1770.67 848.848L1770.14 849.697C1047.26 398.146 289.953 661.55 1.67492 849.691L1.12838 848.854Z" fill="url(#paint0_linear_2_377)"/>
<path d="M1 1.60398L0.702214 1.20233L0.300563 1.50011L0.598349 1.90176L1 1.60398ZM722.773 497.713L722.879 497.224L722.773 497.713ZM1.8033 1.00841L2.20495 0.710619L1.90717 0.308968L1.50551 0.606755L1.8033 1.00841ZM722.984 496.736L722.879 497.224L722.984 496.736ZM1229.3 449.359L1229.1 448.898L1229.3 449.359ZM1770.01 1L1770.31 0.604726L1769.92 0.29852L1769.61 0.693808L1770.01 1ZM1770.8 1.61238L1771.19 1.91858L1771.5 1.5233L1771.1 1.21711L1770.8 1.61238ZM1229.68 450.282L1229.88 450.743L1229.68 450.282ZM1.05746 164.818L0.694786 164.473L0.350592 164.836L0.713265 165.18L1.05746 164.818ZM722.804 513.892L722.879 513.397L722.804 513.892ZM1.74584 164.092L2.09004 163.73L1.72736 163.385L1.38317 163.748L1.74584 164.092ZM722.954 512.903L723.029 512.409L722.954 512.903ZM1770.07 164.085L1770.44 163.749L1770.1 163.378L1769.73 163.715L1770.07 164.085ZM1770.74 164.825L1771.07 165.195L1771.44 164.859L1771.11 164.489L1770.74 164.825ZM1770.67 288.544L1770.93 288.968L1771.36 288.703L1771.09 288.279L1770.67 288.544ZM1.12838 288.538L0.709668 288.265L0.436387 288.684L0.85511 288.957L1.12838 288.538ZM1770.14 287.696L1770.56 287.431L1770.3 287.007L1769.87 287.272L1770.14 287.696ZM1.67492 287.701L1.94819 287.282L1.52948 287.009L1.25621 287.428L1.67492 287.701ZM1.21824 397.698L0.753095 397.514L0.569688 397.979L1.03483 398.163L1.21824 397.698ZM1770.58 397.7L1770.75 398.168L1771.22 397.992L1771.05 397.524L1770.58 397.7ZM1.58506 396.767L1.76847 396.302L1.30332 396.119L1.11991 396.584L1.58506 396.767ZM1770.23 396.765L1770.69 396.588L1770.52 396.12L1770.05 396.297L1770.23 396.765ZM1770.47 499.566L1770.55 500.061L1771.04 499.987L1770.97 499.493L1770.47 499.566ZM1.32506 499.566L0.830964 499.489L0.75438 499.983L1.24848 500.06L1.32506 499.566ZM1770.33 498.577L1770.82 498.503L1770.75 498.009L1770.25 498.082L1770.33 498.577ZM1.47824 498.577L1.55482 498.083L1.06072 498.007L0.984137 498.501L1.47824 498.577ZM1.39485 573.392L1.38806 572.892L0.888101 572.899L0.894899 573.399L1.39485 573.392ZM1770.41 573.392L1770.91 573.399L1770.91 572.899L1770.41 572.892L1770.41 573.392ZM1.40845 574.392L0.908495 574.399L0.915292 574.899L1.41525 574.892L1.40845 574.392ZM1770.4 574.392L1770.39 574.892L1770.89 574.899L1770.9 574.399L1770.4 574.392ZM1770.47 632.629L1770.96 632.695L1771.03 632.199L1770.53 632.133L1770.47 632.629ZM1.33297 632.629L1.26428 632.134L0.769017 632.203L0.837706 632.698L1.33297 632.629ZM1770.34 633.62L1770.27 634.116L1770.77 634.182L1770.83 633.686L1770.34 633.62ZM1.47034 633.62L0.975077 633.688L1.04376 634.184L1.53902 634.115L1.47034 633.62ZM1.22375 735.533L1.04586 735.065L0.578575 735.243L0.756471 735.711L1.22375 735.533ZM1770.57 735.53L1771.04 735.701L1771.21 735.232L1770.74 735.06L1770.57 735.53ZM1.57955 736.467L1.11227 736.645L1.29016 737.113L1.75744 736.935L1.57955 736.467ZM1770.23 736.47L1770.06 736.94L1770.53 737.111L1770.7 736.641L1770.23 736.47ZM1770.67 848.848L1771.09 849.113L1771.36 848.689L1770.93 848.424L1770.67 848.848ZM1.12838 848.854L0.85511 848.435L0.436387 848.708L0.709668 849.127L1.12838 848.854ZM1770.14 849.697L1769.87 850.121L1770.3 850.385L1770.56 849.961L1770.14 849.697ZM1.67492 849.691L1.25621 849.964L1.52948 850.383L1.94819 850.11L1.67492 849.691ZM0.598349 1.90176C144.869 196.493 406.532 430.065 722.668 498.202L722.879 497.224C407.063 429.157 145.589 195.784 1.40165 1.30619L0.598349 1.90176ZM1.50551 0.606755L0.702214 1.20233L1.29779 2.00563L2.10109 1.41006L1.50551 0.606755ZM723.089 496.247C407.595 428.249 146.308 195.075 2.20495 0.710619L1.40165 1.30619C145.589 195.784 407.063 429.157 722.879 497.224L723.089 496.247ZM1229.1 448.898C1052.1 522.958 880.813 530.241 723.089 496.247L722.879 497.224C880.786 531.258 1052.28 523.965 1229.49 449.82L1229.1 448.898ZM1769.61 0.693808C1588.92 233.964 1406.12 374.835 1229.1 448.898L1229.49 449.82C1406.7 375.676 1589.63 234.679 1770.4 1.30619L1769.61 0.693808ZM1771.1 1.21711L1770.31 0.604726L1769.7 1.39527L1770.49 2.00766L1771.1 1.21711ZM1229.88 450.743C1407.28 376.517 1590.34 235.394 1771.19 1.91858L1770.4 1.30619C1589.63 234.679 1406.7 375.676 1229.49 449.82L1229.88 450.743ZM722.668 498.202C880.76 532.275 1052.46 524.972 1229.88 450.743L1229.49 449.82C1052.28 523.965 880.786 531.258 722.879 497.224L722.668 498.202ZM0.713265 165.18C145.021 302.135 406.676 466.456 722.729 514.386L722.879 513.397C407.063 465.503 145.589 301.295 1.40165 164.455L0.713265 165.18ZM1.38317 163.748L0.694786 164.473L1.42013 165.162L2.10852 164.436L1.38317 163.748ZM723.029 512.409C407.45 464.55 146.156 300.455 2.09004 163.73L1.40165 164.455C145.589 301.295 407.063 465.503 722.879 513.397L723.029 512.409ZM1769.73 163.715C1408.41 491.922 1038.56 560.259 723.029 512.409L722.879 513.397C1038.69 561.291 1408.85 492.871 1770.4 164.455L1769.73 163.715ZM1771.11 164.489L1770.44 163.749L1769.7 164.421L1770.37 165.161L1771.11 164.489ZM722.729 514.386C1038.83 562.323 1409.29 493.821 1771.07 165.195L1770.4 164.455C1408.85 492.871 1038.69 561.291 722.879 513.397L722.729 514.386ZM1770.4 288.12C1047.3 739.81 289.776 476.324 1.40165 288.12L0.85511 288.957C289.422 477.287 1047.38 740.937 1770.93 288.968L1770.4 288.12ZM1769.71 287.961L1770.24 288.809L1771.09 288.279L1770.56 287.431L1769.71 287.961ZM1.40165 288.12C289.776 476.324 1047.3 739.81 1770.4 288.12L1769.87 287.272C1047.22 738.683 290.13 475.361 1.94819 287.282L1.40165 288.12ZM1.54709 288.812L2.09363 287.974L1.25621 287.428L0.709668 288.265L1.54709 288.812ZM1.03483 398.163C289.561 511.929 1047.35 671.178 1770.75 398.168L1770.4 397.233C1047.3 670.129 289.776 510.939 1.40165 397.233L1.03483 398.163ZM1.11991 396.584L0.753095 397.514L1.68339 397.881L2.05021 396.951L1.11991 396.584ZM1770.05 396.297C1047.25 669.079 289.991 509.949 1.76847 396.302L1.40165 397.233C289.776 510.939 1047.3 670.129 1770.4 397.233L1770.05 396.297ZM1771.05 397.524L1770.69 396.588L1769.76 396.941L1770.11 397.877L1771.05 397.524ZM1770.4 499.071C1047.3 606.348 289.776 543.77 1.40165 499.071L1.24848 500.06C289.691 544.769 1047.32 607.356 1770.55 500.061L1770.4 499.071ZM1769.83 498.65L1769.98 499.639L1770.97 499.493L1770.82 498.503L1769.83 498.65ZM1.40165 499.071C289.776 543.77 1047.3 606.348 1770.4 499.071L1770.25 498.082C1047.28 605.34 289.86 542.771 1.55482 498.083L1.40165 499.071ZM1.81916 499.642L1.97234 498.654L0.984137 498.501L0.830964 499.489L1.81916 499.642ZM1.40165 573.892C289.776 569.971 1047.3 564.482 1770.4 573.892L1770.41 572.892C1047.3 563.482 289.768 568.971 1.38806 572.892L1.40165 573.892ZM1.9084 574.385L1.89481 573.386L0.894899 573.399L0.908495 574.399L1.9084 574.385ZM1770.4 573.892C1047.3 564.482 289.776 569.971 1.40165 573.892L1.41525 574.892C289.783 570.971 1047.3 565.482 1770.39 574.892L1770.4 573.892ZM1769.91 573.386L1769.9 574.386L1770.9 574.399L1770.91 573.399L1769.91 573.386ZM1770.53 632.133C1047.32 536.134 289.7 592.132 1.26428 632.134L1.40165 633.125C289.776 593.131 1047.3 537.14 1770.4 633.125L1770.53 632.133ZM1770.83 633.686L1770.96 632.695L1769.97 632.563L1769.84 633.554L1770.83 633.686ZM1.53902 634.115C289.851 594.13 1047.28 538.147 1770.27 634.116L1770.4 633.125C1047.3 537.14 289.776 593.131 1.40165 633.125L1.53902 634.115ZM0.837706 632.698L0.975077 633.688L1.9656 633.551L1.82822 632.561L0.837706 632.698ZM1.40165 736C289.776 626.214 1047.3 472.514 1770.4 736L1770.74 735.06C1047.35 471.468 289.568 625.223 1.04586 735.065L1.40165 736ZM2.04683 736.289L1.69104 735.355L0.756471 735.711L1.11227 736.645L2.04683 736.289ZM1770.4 736C1047.3 472.514 289.776 626.214 1.40165 736L1.75744 736.935C289.983 627.205 1047.25 473.56 1770.06 736.94L1770.4 736ZM1770.1 735.359L1769.76 736.299L1770.7 736.641L1771.04 735.701L1770.1 735.359ZM1770.93 848.424C1047.38 396.455 289.422 660.105 0.85511 848.435L1.40165 849.272C289.776 661.068 1047.3 397.582 1770.4 849.272L1770.93 848.424ZM1770.56 849.961L1771.09 849.113L1770.24 848.583L1769.71 849.432L1770.56 849.961ZM1.94819 850.11C290.13 662.031 1047.22 398.71 1769.87 850.121L1770.4 849.272C1047.3 397.582 289.776 661.068 1.40165 849.272L1.94819 850.11ZM0.709668 849.127L1.25621 849.964L2.09363 849.418L1.54709 848.581L0.709668 849.127Z" fill="black"/>
</mask>
<g mask="url(#mask0_2_377)">
<g filter="url(#filter0_f_2_377)">
<ellipse cx="1506.9" cy="467.891" rx="474.614" ry="161.5" transform="rotate(-90 1506.9 467.891)" fill="#FF56BB"/>
<path d="M1506.9 -6.22333C1528.99 -6.22334 1550.1 6.92888 1569.37 30.8876C1588.65 54.8418 1606.02 89.5347 1620.63 132.449C1649.83 218.273 1667.9 336.87 1667.9 467.891C1667.9 598.912 1649.83 717.509 1620.63 803.333C1606.02 846.247 1588.65 880.94 1569.37 904.894C1550.1 928.853 1528.99 942.005 1506.9 942.005C1484.82 942.005 1463.7 928.853 1444.43 904.894C1425.16 880.94 1407.78 846.247 1393.18 803.333C1363.97 717.509 1345.9 598.913 1345.9 467.891C1345.9 336.87 1363.97 218.273 1393.18 132.449C1407.78 89.5347 1425.16 54.8418 1444.43 30.8876C1463.7 6.92889 1484.82 -6.22333 1506.9 -6.22333Z" stroke="black"/>
</g>
<g filter="url(#filter1_f_2_377)">
<ellipse cx="716.858" cy="547.586" rx="275.381" ry="168.457" transform="rotate(90 716.858 547.586)" fill="#44A92E"/>
<path d="M716.858 822.467C670.58 822.467 628.602 791.801 598.167 742.049C567.738 692.306 548.901 623.554 548.901 547.586C548.901 471.619 567.738 402.867 598.167 353.124C628.602 303.372 670.58 272.706 716.858 272.706C763.137 272.706 805.114 303.372 835.549 353.124C865.978 402.867 884.815 471.619 884.815 547.586C884.815 623.554 865.978 692.306 835.549 742.049C805.114 791.801 763.136 822.467 716.858 822.467Z" stroke="black"/>
</g>
<g filter="url(#filter2_f_2_377)">
<ellipse cx="1223.96" cy="523.142" rx="208.875" ry="263.406" fill="#004BDC"/>
<path d="M1432.34 523.142C1432.34 668.455 1338.94 786.048 1223.96 786.048C1108.98 786.048 1015.59 668.455 1015.59 523.142C1015.59 377.828 1108.98 260.235 1223.96 260.235C1338.94 260.235 1432.34 377.828 1432.34 523.142Z" stroke="black"/>
</g>
<g filter="url(#filter3_f_2_377)">
<ellipse cx="966.715" cy="546.867" rx="185.689" ry="192.963" fill="#06BDED"/>
<path d="M1151.9 546.867C1151.9 653.18 1068.97 739.33 966.715 739.33C864.456 739.33 781.526 653.18 781.526 546.867C781.526 440.555 864.456 354.405 966.715 354.405C1068.97 354.405 1151.9 440.555 1151.9 546.867Z" stroke="black"/>
</g>
<g filter="url(#filter4_f_2_377)">
<ellipse cx="409.401" cy="488.263" rx="149" ry="395.879" fill="#FAC817"/>
<path d="M557.901 488.263C557.901 597.538 541.23 696.445 514.292 768.016C500.823 803.803 484.796 832.729 467.025 852.7C449.254 872.671 429.78 883.642 409.401 883.642C389.022 883.642 369.549 872.671 351.777 852.7C334.006 832.729 317.98 803.803 304.51 768.016C277.573 696.445 260.901 597.538 260.901 488.263C260.901 378.988 277.573 280.081 304.51 208.51C317.98 172.723 334.006 143.797 351.777 123.827C369.549 103.856 389.022 92.884 409.401 92.884C429.78 92.884 449.254 103.856 467.025 123.827C484.796 143.797 500.823 172.723 514.292 208.51C541.23 280.081 557.901 378.988 557.901 488.263Z" stroke="black"/>
</g>
<g filter="url(#filter5_f_2_377)">
<ellipse cx="233.401" cy="387.003" rx="91" ry="467" fill="#F8130C"/>
<path d="M323.901 387.003C323.901 515.939 313.717 632.656 297.257 717.126C289.027 759.365 279.231 793.516 268.369 817.095C262.937 828.885 257.25 838.005 251.379 844.17C245.508 850.335 239.497 853.503 233.401 853.503C227.306 853.503 221.294 850.335 215.424 844.17C209.553 838.005 203.866 828.885 198.434 817.095C187.571 793.516 177.776 759.365 169.545 717.126C153.085 632.656 142.901 515.939 142.901 387.003C142.901 258.066 153.085 141.35 169.545 56.8797C177.776 14.6404 187.571 -19.51 198.434 -43.0887C203.866 -54.8794 209.553 -63.9994 215.424 -70.1645C221.294 -76.3294 227.306 -79.4971 233.401 -79.4971C239.497 -79.4971 245.508 -76.3294 251.379 -70.1645C257.25 -63.9994 262.937 -54.8794 268.369 -43.0887C279.231 -19.51 289.027 14.6404 297.257 56.8797C313.717 141.35 323.901 258.066 323.901 387.003Z" stroke="black"/>
</g>
</g>
</g>
<defs>
<filter id="filter0_f_2_377" x="1094.31" y="-257.813" width="825.179" height="1451.41" filterUnits="userSpaceOnUse" color-interpolation-filters="sRGB">
<feFlood flood-opacity="0" result="BackgroundImageFix"/>
<feBlend mode="normal" in="SourceGraphic" in2="BackgroundImageFix" result="shape"/>
<feGaussianBlur stdDeviation="125.545" result="effect1_foregroundBlur_2_377"/>
</filter>
<filter id="filter1_f_2_377" x="300.123" y="23.9268" width="833.472" height="1047.32" filterUnits="userSpaceOnUse" color-interpolation-filters="sRGB">
<feFlood flood-opacity="0" result="BackgroundImageFix"/>
<feBlend mode="normal" in="SourceGraphic" in2="BackgroundImageFix" result="shape"/>
<feGaussianBlur stdDeviation="124.139" result="effect1_foregroundBlur_2_377"/>
</filter>
<filter id="filter2_f_2_377" x="702.222" y="-53.1313" width="1043.48" height="1152.55" filterUnits="userSpaceOnUse" color-interpolation-filters="sRGB">
<feFlood flood-opacity="0" result="BackgroundImageFix"/>
<feBlend mode="normal" in="SourceGraphic" in2="BackgroundImageFix" result="shape"/>
<feGaussianBlur stdDeviation="156.433" result="effect1_foregroundBlur_2_377"/>
</filter>
<filter id="filter3_f_2_377" x="607.054" y="179.932" width="719.322" height="733.87" filterUnits="userSpaceOnUse" color-interpolation-filters="sRGB">
<feFlood flood-opacity="0" result="BackgroundImageFix"/>
<feBlend mode="normal" in="SourceGraphic" in2="BackgroundImageFix" result="shape"/>
<feGaussianBlur stdDeviation="86.986" result="effect1_foregroundBlur_2_377"/>
</filter>
<filter id="filter4_f_2_377" x="14.8431" y="-153.174" width="789.117" height="1282.87" filterUnits="userSpaceOnUse" color-interpolation-filters="sRGB">
<feFlood flood-opacity="0" result="BackgroundImageFix"/>
<feBlend mode="normal" in="SourceGraphic" in2="BackgroundImageFix" result="shape"/>
<feGaussianBlur stdDeviation="122.779" result="effect1_foregroundBlur_2_377"/>
</filter>
<filter id="filter5_f_2_377" x="-260.06" y="-482.458" width="986.923" height="1738.92" filterUnits="userSpaceOnUse" color-interpolation-filters="sRGB">
<feFlood flood-opacity="0" result="BackgroundImageFix"/>
<feBlend mode="normal" in="SourceGraphic" in2="BackgroundImageFix" result="shape"/>
<feGaussianBlur stdDeviation="201.231" result="effect1_foregroundBlur_2_377"/>
</filter>
<linearGradient id="paint0_linear_2_377" x1="885.898" y1="1" x2="885.898" y2="849.697" gradientUnits="userSpaceOnUse">
<stop stop-color="#070707" stop-opacity="0"/>
<stop offset="1" stop-color="#1A1A1A"/>
</linearGradient>
</defs>
</svg>
