<svg width="360" height="330" viewBox="0 0 360 330" fill="none" xmlns="http://www.w3.org/2000/svg">
<g opacity="0.5">
<mask id="mask0_235_538" style="mask-type:alpha" maskUnits="userSpaceOnUse" x="-45" y="0" width="448" height="330">
<path fill-rule="evenodd" clip-rule="evenodd" d="M30.67 115.497C-0.288933 80.2496 -25.8384 38.8982 -44 1.30854L-43.3727 1.00543C-25.2328 38.5499 0.283749 79.8459 31.1934 115.037C62.1059 150.231 98.3922 179.297 138.067 192.418C177.724 205.534 220.791 202.729 265.317 174.142C309.859 145.544 355.878 91.1334 401.378 1L402 1.31397C356.473 91.5023 310.382 146.036 265.693 174.728C220.988 203.43 177.703 206.261 137.848 193.08C98.0109 179.904 61.6261 150.741 30.67 115.497ZM137.878 199.331C58.2486 180.8 -7.64649 117.283 -43.9735 64.3792L-43.3992 63.9849C-7.12321 116.814 58.6428 180.177 138.036 198.652C177.723 207.888 220.821 205.91 265.362 185.788C309.907 165.664 355.918 127.384 401.406 63.979L401.972 64.3851C356.433 127.86 310.334 166.236 265.648 186.423C220.958 206.612 177.704 208.599 137.878 199.331ZM-43.9328 112.196C-7.59071 148.592 58.3038 192.261 137.902 204.999C217.521 217.741 310.824 199.53 401.93 112.201L401.448 111.698C310.501 198.874 217.417 217.019 138.012 204.311C58.5875 191.601 -7.179 148.018 -43.4398 111.703L-43.9328 112.196ZM401.863 154.416C219.663 259.931 28.8021 198.381 -43.8667 154.412L-43.506 153.816C29.0311 197.706 219.609 259.157 401.514 153.813L401.863 154.416ZM-43.7669 193.797C28.8714 211.074 219.647 235.258 401.766 193.798L401.611 193.119C219.625 234.548 28.9618 210.38 -43.6057 193.119L-43.7669 193.797ZM401.696 222.02C219.637 218.384 28.9127 220.505 -43.6936 222.02L-43.6791 222.716C28.9206 221.202 219.635 219.081 401.682 222.716L401.696 222.02ZM-43.7588 244.906C28.8762 229.448 219.646 207.811 401.758 244.905L401.619 245.588C219.626 208.518 28.9571 230.143 -43.6138 245.587L-43.7588 244.906ZM401.859 284.692C219.662 182.817 28.806 242.242 -43.8621 284.695L-43.5106 285.297C29.0272 242.92 219.61 183.586 401.519 285.3L401.859 284.692ZM-43.9328 328.504C-7.59071 292.108 58.3038 248.439 137.902 235.7C217.521 222.959 310.824 241.17 401.93 328.499L401.448 329.002C310.501 241.825 217.417 223.681 138.012 236.388C58.5875 249.099 -7.179 292.682 -43.4398 328.996L-43.9328 328.504Z" fill="url(#paint0_linear_235_538)"/>
<path d="M-44 1.30854L-44.1516 0.994867L-44.4652 1.14642L-44.3137 1.46009L-44 1.30854ZM30.67 115.497L30.4082 115.727L30.67 115.497ZM-43.3727 1.00543L-43.059 0.853884L-43.2105 0.540215L-43.5242 0.691766L-43.3727 1.00543ZM31.1934 115.037L31.4552 114.807L31.1934 115.037ZM138.067 192.418L137.957 192.749L138.067 192.418ZM265.317 174.142L265.129 173.849L265.317 174.142ZM401.378 1L401.535 0.689015L401.224 0.532033L401.067 0.843015L401.378 1ZM402 1.31397L402.311 1.47095L402.468 1.15997L402.157 1.00298L402 1.31397ZM265.693 174.728L265.881 175.021L265.693 174.728ZM137.848 193.08L137.739 193.41L137.848 193.08ZM-43.9735 64.3792L-44.1707 64.0921L-44.4579 64.2893L-44.2607 64.5764L-43.9735 64.3792ZM137.878 199.331L137.957 198.992L137.878 199.331ZM-43.3992 63.9849L-43.112 63.7877L-43.3092 63.5005L-43.5963 63.6977L-43.3992 63.9849ZM138.036 198.652L137.957 198.992L138.036 198.652ZM265.362 185.788L265.505 186.105L265.362 185.788ZM401.406 63.979L401.609 63.6959L401.326 63.4929L401.123 63.7759L401.406 63.979ZM401.972 64.3851L402.255 64.5882L402.458 64.3051L402.175 64.1021L401.972 64.3851ZM265.648 186.423L265.792 186.74L265.648 186.423ZM137.902 204.999L137.847 205.343L137.902 204.999ZM-43.9328 112.196L-44.179 111.949L-44.4255 112.195L-44.1794 112.442L-43.9328 112.196ZM401.93 112.201L402.171 112.453L402.422 112.211L402.181 111.96L401.93 112.201ZM401.448 111.698L401.699 111.457L401.458 111.206L401.207 111.447L401.448 111.698ZM138.012 204.311L138.068 203.967L138.012 204.311ZM-43.4398 111.703L-43.1933 111.457L-43.4395 111.211L-43.686 111.457L-43.4398 111.703ZM-43.8667 154.412L-44.1647 154.232L-44.3451 154.53L-44.047 154.71L-43.8667 154.412ZM401.863 154.416L402.038 154.717L402.339 154.543L402.165 154.241L401.863 154.416ZM-43.506 153.816L-43.3257 153.518L-43.6237 153.338L-43.804 153.636L-43.506 153.816ZM401.514 153.813L401.816 153.638L401.641 153.337L401.34 153.511L401.514 153.813ZM401.766 193.798L401.843 194.138L402.183 194.06L402.106 193.721L401.766 193.798ZM-43.7669 193.797L-44.1058 193.717L-44.1865 194.055L-43.8476 194.136L-43.7669 193.797ZM401.611 193.119L401.951 193.041L401.874 192.702L401.534 192.779L401.611 193.119ZM-43.6057 193.119L-43.5251 192.78L-43.864 192.7L-43.9446 193.039L-43.6057 193.119ZM-43.6936 222.02L-43.7009 221.672L-44.0492 221.679L-44.0419 222.027L-43.6936 222.02ZM401.696 222.02L402.044 222.027L402.051 221.678L401.703 221.671L401.696 222.02ZM-43.6791 222.716L-44.0274 222.724L-44.0201 223.072L-43.6718 223.065L-43.6791 222.716ZM401.682 222.716L401.675 223.065L402.023 223.072L402.03 222.723L401.682 222.716ZM401.758 244.905L402.1 244.975L402.169 244.633L401.828 244.564L401.758 244.905ZM-43.7588 244.906L-43.8314 244.565L-44.1721 244.638L-44.0996 244.978L-43.7588 244.906ZM401.619 245.588L401.55 245.929L401.891 245.999L401.961 245.658L401.619 245.588ZM-43.6138 245.587L-43.9545 245.66L-43.882 246.001L-43.5413 245.928L-43.6138 245.587ZM-43.8621 284.695L-44.0378 284.394L-44.3386 284.57L-44.1628 284.871L-43.8621 284.695ZM401.859 284.692L402.163 284.862L402.333 284.558L402.029 284.388L401.859 284.692ZM-43.5106 285.297L-43.8114 285.472L-43.6357 285.773L-43.3349 285.597L-43.5106 285.297ZM401.519 285.3L401.349 285.604L401.653 285.774L401.823 285.47L401.519 285.3ZM137.902 235.7L137.957 236.044L137.902 235.7ZM-43.9328 328.504L-44.1794 328.258L-44.4255 328.504L-44.179 328.751L-43.9328 328.504ZM401.93 328.499L402.181 328.74L402.422 328.488L402.171 328.247L401.93 328.499ZM401.448 329.002L401.207 329.253L401.458 329.494L401.699 329.243L401.448 329.002ZM138.012 236.388L138.068 236.732L138.012 236.388ZM-43.4398 328.996L-43.686 329.243L-43.4395 329.489L-43.1933 329.242L-43.4398 328.996ZM-44.3137 1.46009C-26.1411 39.0723 -0.575272 80.4515 30.4082 115.727L30.9317 115.267C-0.00259399 80.0478 -25.5356 38.724 -43.6863 1.15698L-44.3137 1.46009ZM-43.5242 0.691766L-44.1516 0.994867L-43.8484 1.6222L-43.2211 1.3191L-43.5242 0.691766ZM31.4552 114.807C0.570087 79.644 -24.9301 38.3758 -43.059 0.853884L-43.6863 1.15698C-25.5356 38.724 -0.00259018 80.0478 30.9317 115.267L31.4552 114.807ZM138.176 192.087C98.5829 178.993 62.3458 149.976 31.4552 114.807L30.9317 115.267C61.866 150.486 98.2016 179.6 137.957 192.749L138.176 192.087ZM265.129 173.849C220.692 202.379 177.735 205.171 138.176 192.087L137.957 192.749C177.713 205.897 220.89 203.08 265.505 174.435L265.129 173.849ZM401.067 0.843015C355.581 90.9489 309.597 145.298 265.129 173.849L265.505 174.435C310.121 145.79 356.176 91.3179 401.689 1.15698L401.067 0.843015ZM402.157 1.00298L401.535 0.689015L401.221 1.31099L401.843 1.62495L402.157 1.00298ZM265.881 175.021C310.644 146.282 356.77 91.6868 402.311 1.47095L401.689 1.15698C356.175 91.3179 310.121 145.79 265.505 174.435L265.881 175.021ZM137.739 193.41C177.692 206.624 221.087 203.781 265.881 175.021L265.505 174.435C220.89 203.08 177.713 205.897 137.957 192.749L137.739 193.41ZM30.4082 115.727C61.3862 150.995 97.8202 180.208 137.739 193.41L137.957 192.749C98.2016 179.6 61.866 150.486 30.9317 115.267L30.4082 115.727ZM-44.2607 64.5764C-7.90813 117.517 58.0514 181.112 137.8 199.67L137.957 198.992C58.4457 180.488 -7.38485 117.049 -43.6863 64.182L-44.2607 64.5764ZM-43.5963 63.6977L-44.1707 64.0921L-43.7763 64.6664L-43.202 64.272L-43.5963 63.6977ZM138.115 198.313C58.8399 179.865 -6.86158 116.58 -43.112 63.7877L-43.6863 64.182C-7.38485 117.049 58.4457 180.488 137.957 198.992L138.115 198.313ZM265.218 185.471C220.752 205.559 177.733 207.533 138.115 198.313L137.957 198.992C177.713 208.243 220.89 206.261 265.505 186.105L265.218 185.471ZM401.123 63.7759C355.66 127.145 309.694 165.378 265.218 185.471L265.505 186.105C310.121 165.95 356.175 127.622 401.689 64.182L401.123 63.7759ZM402.175 64.1021L401.609 63.6959L401.203 64.262L401.769 64.6682L402.175 64.1021ZM265.792 186.74C310.548 166.522 356.691 128.098 402.255 64.5882L401.689 64.182C356.175 127.622 310.121 165.95 265.505 186.105L265.792 186.74ZM137.8 199.67C177.694 208.954 221.027 206.963 265.792 186.74L265.505 186.105C220.89 206.261 177.713 208.243 137.957 198.992L137.8 199.67ZM137.957 204.655C58.4457 191.931 -7.38485 148.305 -43.6863 111.95L-44.1794 112.442C-7.79656 148.878 58.1619 192.591 137.847 205.343L137.957 204.655ZM401.689 111.95C310.662 199.202 217.469 217.38 137.957 204.655L137.847 205.343C217.573 218.102 310.986 199.857 402.171 112.453L401.689 111.95ZM401.196 111.939L401.678 112.442L402.181 111.96L401.699 111.457L401.196 111.939ZM137.957 204.655C217.469 217.38 310.662 199.202 401.689 111.95L401.207 111.447C310.339 198.547 217.365 216.657 138.068 203.967L137.957 204.655ZM-43.6863 111.95C-7.38485 148.305 58.4457 191.931 137.957 204.655L138.068 203.967C58.7294 191.271 -6.97315 147.731 -43.1933 111.457L-43.6863 111.95ZM-43.6867 112.442L-43.1937 111.95L-43.686 111.457L-44.179 111.949L-43.6867 112.442ZM-44.047 154.71C28.6877 198.719 219.69 260.318 402.038 154.717L401.689 154.114C219.636 259.544 28.9166 198.044 -43.6863 154.114L-44.047 154.71ZM-43.804 153.636L-44.1647 154.232L-43.5686 154.593L-43.2079 153.997L-43.804 153.636ZM401.34 153.511C219.582 258.771 29.1456 197.368 -43.3257 153.518L-43.6863 154.114C28.9166 198.044 219.636 259.544 401.689 154.114L401.34 153.511ZM402.165 154.241L401.816 153.638L401.213 153.987L401.562 154.59L402.165 154.241ZM401.689 193.458C219.636 234.903 28.9166 210.727 -43.6863 193.458L-43.8476 194.136C28.8262 211.422 219.658 235.613 401.843 194.138L401.689 193.458ZM401.272 193.196L401.426 193.875L402.106 193.721L401.951 193.041L401.272 193.196ZM-43.6863 193.458C28.9166 210.727 219.636 234.903 401.689 193.458L401.534 192.779C219.614 234.194 29.007 210.032 -43.5251 192.78L-43.6863 193.458ZM-43.428 193.878L-43.2668 193.2L-43.9446 193.039L-44.1058 193.717L-43.428 193.878ZM-43.6863 222.368C28.9166 220.853 219.636 218.733 401.689 222.368L401.703 221.671C219.638 218.036 28.9087 220.157 -43.7009 221.672L-43.6863 222.368ZM-43.3308 222.709L-43.3453 222.013L-44.0419 222.027L-44.0274 222.724L-43.3308 222.709ZM401.689 222.368C219.636 218.733 28.9166 220.853 -43.6863 222.368L-43.6718 223.065C28.9245 221.55 219.634 219.429 401.675 223.065L401.689 222.368ZM401.347 222.013L401.333 222.709L402.03 222.723L402.044 222.027L401.347 222.013ZM401.828 244.564C219.655 207.457 28.8358 229.101 -43.8314 244.565L-43.6863 245.247C28.9166 229.796 219.636 208.164 401.689 245.247L401.828 244.564ZM401.961 245.658L402.1 244.975L401.417 244.836L401.278 245.518L401.961 245.658ZM-43.5413 245.928C28.9975 230.491 219.616 208.871 401.55 245.929L401.689 245.247C219.636 208.164 28.9166 229.796 -43.6863 245.247L-43.5413 245.928ZM-44.0996 244.978L-43.9545 245.66L-43.2731 245.515L-43.4181 244.833L-44.0996 244.978ZM-43.6863 284.996C28.9166 242.581 219.636 183.201 401.689 284.996L402.029 284.388C219.688 182.432 28.6954 241.904 -44.0378 284.394L-43.6863 284.996ZM-43.2098 285.121L-43.5613 284.519L-44.1628 284.871L-43.8114 285.472L-43.2098 285.121ZM401.689 284.996C219.636 183.201 28.9166 242.581 -43.6863 284.996L-43.3349 285.597C29.1378 243.259 219.583 183.97 401.349 285.604L401.689 284.996ZM401.555 284.522L401.215 285.13L401.823 285.47L402.163 284.862L401.555 284.522ZM137.847 235.356C58.1619 248.109 -7.79656 291.821 -44.1794 328.258L-43.6863 328.75C-7.38485 292.395 58.4457 248.769 137.957 236.044L137.847 235.356ZM402.171 328.247C310.986 240.843 217.573 222.598 137.847 235.356L137.957 236.044C217.469 223.32 310.662 241.498 401.689 328.75L402.171 328.247ZM401.699 329.243L402.181 328.74L401.678 328.258L401.196 328.761L401.699 329.243ZM138.068 236.732C217.365 224.042 310.339 242.153 401.207 329.253L401.689 328.75C310.662 241.498 217.469 223.32 137.957 236.044L138.068 236.732ZM-43.1933 329.242C-6.97315 292.969 58.7294 249.429 138.068 236.732L137.957 236.044C58.4457 248.769 -7.38485 292.395 -43.6863 328.75L-43.1933 329.242ZM-44.179 328.751L-43.686 329.243L-43.1937 328.75L-43.6867 328.257L-44.179 328.751Z" fill="black"/>
</mask>
<g mask="url(#mask0_235_538)">
<g filter="url(#filter0_f_235_538)">
<ellipse cx="335.349" cy="181.408" rx="183.361" ry="40.6603" transform="rotate(-90 335.349 181.408)" fill="#FF56BB"/>
<path d="M335.349 -1.60535C338.042 -1.60535 340.702 -0.376224 343.307 2.02755C345.914 4.43304 348.445 7.99752 350.867 12.6175C355.711 21.8567 360.084 35.2489 363.76 51.827C371.111 84.9776 375.661 130.791 375.661 181.408C375.661 232.024 371.111 277.838 363.76 310.988C360.084 327.567 355.711 340.959 350.867 350.198C348.445 354.818 345.914 358.382 343.307 360.788C340.702 363.192 338.042 364.421 335.349 364.421C332.656 364.421 329.996 363.192 327.391 360.788C324.784 358.382 322.253 354.818 319.831 350.198C314.987 340.959 310.614 327.567 306.938 310.988C299.587 277.838 295.037 232.024 295.037 181.408C295.037 130.791 299.587 84.9776 306.938 51.827C310.614 35.2489 314.987 21.8567 319.831 12.6175C322.253 7.99753 324.784 4.43304 327.391 2.02756C329.996 -0.376223 332.656 -1.60535 335.349 -1.60535Z" stroke="black" stroke-width="0.696722"/>
</g>
<g filter="url(#filter1_f_235_538)">
<ellipse cx="136.441" cy="212.194" rx="106.39" ry="42.4119" transform="rotate(90 136.441 212.194)" fill="#44A92E"/>
<path d="M136.441 318.235C130.712 318.235 125.219 315.324 120.186 309.984C115.152 304.643 110.603 296.896 106.775 287.294C99.1198 268.091 94.3773 241.54 94.3773 212.194C94.3773 182.848 99.1198 156.296 106.775 137.094C110.603 127.492 115.152 119.744 120.186 114.403C125.219 109.063 130.712 106.152 136.441 106.152C142.17 106.152 147.663 109.063 152.696 114.403C157.73 119.744 162.279 127.492 166.107 137.094C173.762 156.296 178.504 182.848 178.504 212.194C178.504 241.54 173.762 268.091 166.107 287.294C162.279 296.896 157.73 304.643 152.696 309.984C147.663 315.324 142.17 318.235 136.441 318.235Z" stroke="black" stroke-width="0.696722"/>
</g>
<g filter="url(#filter2_f_235_538)">
<ellipse cx="264.12" cy="202.744" rx="52.5878" ry="101.764" fill="#004BDC"/>
<path d="M316.36 202.744C316.36 230.801 310.482 256.185 300.996 274.542C291.501 292.917 278.445 304.16 264.12 304.16C249.796 304.16 236.74 292.917 227.245 274.542C217.758 256.185 211.881 230.801 211.881 202.744C211.881 174.687 217.758 149.303 227.245 130.946C236.74 112.572 249.796 101.329 264.12 101.329C278.445 101.329 291.501 112.572 300.996 130.946C310.482 149.303 316.36 174.687 316.36 202.744Z" stroke="black" stroke-width="0.696722"/>
</g>
<g filter="url(#filter3_f_235_538)">
<ellipse cx="199.361" cy="211.912" rx="46.7502" ry="74.5488" fill="#06BDED"/>
<path d="M245.763 211.912C245.763 232.443 240.543 251.014 232.123 264.441C223.7 277.873 212.108 286.112 199.361 286.112C186.614 286.112 175.022 277.873 166.599 264.441C158.178 251.014 152.959 232.443 152.959 211.912C152.959 191.381 158.178 172.81 166.599 159.383C175.022 145.951 186.614 137.712 199.361 137.712C212.108 137.712 223.7 145.951 232.123 159.383C240.543 172.81 245.763 191.381 245.763 211.912Z" stroke="black" stroke-width="0.696722"/>
</g>
<g filter="url(#filter4_f_235_538)">
<ellipse cx="59.0379" cy="189.277" rx="37.5132" ry="152.943" fill="#FAC817"/>
<path d="M96.2027 189.277C96.2027 231.492 92.0055 269.699 85.2254 297.342C81.8347 311.166 77.8026 322.328 73.3384 330.027C68.8595 337.75 64.0149 341.872 59.0379 341.872C54.0609 341.872 49.2162 337.75 44.7374 330.027C40.2732 322.328 36.2411 311.166 32.8504 297.342C26.0702 269.699 21.873 231.492 21.873 189.277C21.873 147.063 26.0702 108.856 32.8504 81.2134C36.2411 67.3892 40.2732 56.2265 44.7374 48.5282C49.2162 40.8047 54.0609 36.6828 59.0379 36.6828C64.0149 36.6828 68.8595 40.8047 73.3384 48.5282C77.8026 56.2265 81.8347 67.3892 85.2254 81.2134C92.0055 108.856 96.2027 147.063 96.2027 189.277Z" stroke="black" stroke-width="0.696722"/>
</g>
<g filter="url(#filter5_f_235_538)">
<ellipse cx="14.7249" cy="150.152" rx="22.9111" ry="180.42" fill="#F8130C"/>
<path d="M37.2876 150.152C37.2876 199.964 34.7236 245.054 30.5799 277.685C28.5077 294.002 26.0421 307.191 23.3093 316.294C21.9421 320.847 20.5139 324.358 19.0463 326.723C17.5648 329.11 16.111 330.224 14.7249 330.224C13.3387 330.224 11.8849 329.11 10.4035 326.723C8.93585 324.358 7.50766 320.847 6.14046 316.294C3.40761 307.191 0.942007 294.002 -1.13018 277.685C-5.27391 245.054 -7.83792 199.964 -7.83792 150.152C-7.83792 100.341 -5.27391 55.2512 -1.13018 22.6203C0.942007 6.30233 3.40761 -6.88645 6.14046 -15.9889C7.50766 -20.5427 8.93585 -24.0532 10.4035 -26.4182C11.8849 -28.8054 13.3387 -29.919 14.7249 -29.919C16.111 -29.919 17.5648 -28.8054 19.0463 -26.4182C20.5139 -24.0532 21.9421 -20.5427 23.3093 -15.9889C26.0421 -6.88645 28.5077 6.30233 30.5799 22.6203C34.7236 55.2512 37.2876 100.341 37.2876 150.152Z" stroke="black" stroke-width="0.696722"/>
</g>
</g>
</g>
<defs>
<filter id="filter0_f_235_538" x="119.749" y="-176.893" width="431.2" height="716.602" filterUnits="userSpaceOnUse" color-interpolation-filters="sRGB">
<feFlood flood-opacity="0" result="BackgroundImageFix"/>
<feBlend mode="normal" in="SourceGraphic" in2="BackgroundImageFix" result="shape"/>
<feGaussianBlur stdDeviation="87.4698" result="effect1_foregroundBlur_235_538"/>
</filter>
<filter id="filter1_f_235_538" x="-78.9523" y="-67.1774" width="430.786" height="558.742" filterUnits="userSpaceOnUse" color-interpolation-filters="sRGB">
<feFlood flood-opacity="0" result="BackgroundImageFix"/>
<feBlend mode="normal" in="SourceGraphic" in2="BackgroundImageFix" result="shape"/>
<feGaussianBlur stdDeviation="86.4906" result="effect1_foregroundBlur_235_538"/>
</filter>
<filter id="filter2_f_235_538" x="-6.44859" y="-117.001" width="541.138" height="639.49" filterUnits="userSpaceOnUse" color-interpolation-filters="sRGB">
<feFlood flood-opacity="0" result="BackgroundImageFix"/>
<feBlend mode="normal" in="SourceGraphic" in2="BackgroundImageFix" result="shape"/>
<feGaussianBlur stdDeviation="108.991" result="effect1_foregroundBlur_235_538"/>
</filter>
<filter id="filter3_f_235_538" x="31.4005" y="16.153" width="335.921" height="391.518" filterUnits="userSpaceOnUse" color-interpolation-filters="sRGB">
<feFlood flood-opacity="0" result="BackgroundImageFix"/>
<feBlend mode="normal" in="SourceGraphic" in2="BackgroundImageFix" result="shape"/>
<feGaussianBlur stdDeviation="60.6051" result="effect1_foregroundBlur_235_538"/>
</filter>
<filter id="filter4_f_235_538" x="-149.561" y="-134.751" width="417.198" height="648.058" filterUnits="userSpaceOnUse" color-interpolation-filters="sRGB">
<feFlood flood-opacity="0" result="BackgroundImageFix"/>
<feBlend mode="normal" in="SourceGraphic" in2="BackgroundImageFix" result="shape"/>
<feGaussianBlur stdDeviation="85.5429" result="effect1_foregroundBlur_235_538"/>
</filter>
<filter id="filter5_f_235_538" x="-288.59" y="-310.671" width="606.63" height="921.647" filterUnits="userSpaceOnUse" color-interpolation-filters="sRGB">
<feFlood flood-opacity="0" result="BackgroundImageFix"/>
<feBlend mode="normal" in="SourceGraphic" in2="BackgroundImageFix" result="shape"/>
<feGaussianBlur stdDeviation="140.202" result="effect1_foregroundBlur_235_538"/>
</filter>
<linearGradient id="paint0_linear_235_538" x1="179" y1="1" x2="179" y2="329.002" gradientUnits="userSpaceOnUse">
<stop stop-color="#070707" stop-opacity="0"/>
<stop offset="1" stop-color="#1A1A1A"/>
</linearGradient>
</defs>
</svg>
